<?xml version="1.0" encoding="UTF-8"?>
<svg id="Livello_2" data-name="Livello 2" xmlns="http://www.w3.org/2000/svg" viewBox="0 0 572.51 594.89">
  <defs>
    <style>
      .cls-1 {
        stroke: #fff;
        stroke-miterlimit: 10;
      }
    </style>
  </defs>
  <g id="Livello_1-2" data-name="Livello 1">
    <path d="M394.54,122.37l-93.02,26.76c0-14.69-.31-28.09-.76-39.99-.79-23.29-4.07-42.06-10.16-56.52-5.96-14.33-15.85-24.74-29.31-31.2-13.49-6.28-32.91-9.59-58.16-9.59-16.45,0-29.61,2.99-39.5,8.79-9.69,5.83-17.08,13.08-21.94,21.92-4.86,8.67-8,17.93-9.26,28.01-1.4,9.94-2.04,18.87-2.04,26.91v9.61c0,13.08-5.15,25.66-14.39,34.8l-.63.63c-9.1,9.3-21.65,14.46-34.64,14.46s-25.38-5.18-34.64-14.46l-.63-.63c-9.26-9.14-14.43-21.72-14.43-34.8v-10.24c0-12.11,2.83-23.92,8.47-35.43,5.64-11.47,15.06-21.72,28.21-30.85,13.19-9.14,30.55-16.36,52.2-22.04C141.54,2.82,168.34,0,200.3,0c42.47,0,76.97,4.89,103.28,14.97,26.32,10.06,46.71,23.76,61.28,41.39,14.43,17.5,24.15,38.27,29.02,62.38.22,1.23.43,2.42.67,3.62v.02Z"/>
    <path class="cls-1" d="M472.99,164.86c.22,19.16.34,41.04.34,65.65v-65.74l-.34.09Z"/>
    <path d="M473.33,164.75v377.28c0,16.7-17.42,28.07-32.33,20.72-.11-.04-.16-.11-.27-.13-13.62-6.79-23.18-17.81-29.14-33.08-5.8-15.27-8.95-35.27-9.58-59.54-.63-24.41-.79-54.33-.79-89.9v-168.32c0-7.2-.2-14.33-.59-21.32-.05-1.57-.16-3.15-.27-4.71l-92.33,26.57-183.42,52.77c-11.89,5.39-22.86,11.47-33.05,18.19-20.68,13.54-37.92,28.5-51.41,45.02-13.49,16.38-23.65,33.52-30.24,51.34-6.59,17.61-9.89,34.64-9.89,51v2.84c0,55.45,14.14,96.24,42.33,122.37,28.21,26.11,68.65,39.03,121.28,39.03,33.54,0,63.31-7.71,89.52-23.47,26.17-15.73,47.79-41.7,65.19-77.92,5.66,13.52,13.31,25.81,23.02,36.81,9.89,11.04,22.1,20.49,36.67,28.38,14.75,7.85,32.3,14.01,52.81,18.1,12.7,2.68,26.82,4.4,42.47,5.36,27.38,0,52.16-11.17,70.14-29.17,17.96-18.04,29.07-42.98,29.07-70.49V136.2l-99.21,28.56h.04ZM307.45,470.6c-.86,17.34-6.14,34.18-15.98,48.68-.18.29-.36.54-.54.82-8.79,12.88-18.68,23.92-29.65,33.22-10.95,9.32-22.88,16.52-35.86,21.73-12.86,5.36-26.66,8.03-41.39,8.03-16.62,0-30.24-3-41.21-8.83-10.83-5.84-19.58-14.33-25.85-25.19-6.43-11.04-10.99-24.09-13.65-39.22-2.67-15.09-3.93-32.12-3.93-50.85v-50.54c0-12.45.95-26.29,2.83-41.57,1.87-15.42,5.33-29.91,10.5-43.74,5.03-13.72,11.78-26.17,19.89-37.01,8.32-11.04,19.15-18.59,32.3-22.69l136.97-42.49,6.14-1.88-.54,241.43c.16,3.38.16,6.75-.02,10.13v-.04Z"/>
    <path d="M520.15,94.75c26.04,0,47.16-21.21,47.16-47.38S546.19,0,520.15,0s-47.16,21.21-47.16,47.38,21.11,47.38,47.16,47.38Z"/>
  </g>
</svg>