<?xml version="1.0" encoding="UTF-8"?>
<svg id="Layer_2" data-name="Layer 2" xmlns="http://www.w3.org/2000/svg" viewBox="0 0 755.03 212">
  <defs>
    <style>
      .cls-1 {
        fill: #fff;
        stroke-width: 0px;
      }
    </style>
  </defs>
  <g id="Layer_1-2" data-name="Layer 1">
    <g>
      <g>
        <g>
          <path class="cls-1" d="m189.74,75.26c-2.03-3.6-5.48-5.4-10.32-5.4s-8.29,1.84-10.32,5.51c-2.03,3.68-3.05,9.74-3.05,18.18v17.13h-9.86v-14.31c0-10.01,1.68-17.17,5.05-21.47,3.36-4.3,8.95-6.45,16.78-6.45h2.35c7.98,0,13.65,2.03,17.01,6.1,3.36,4.07,5.05,10.79,5.05,20.18v74.62h-9.62v-75.79c0-8.6-1.02-14.7-3.05-18.3Zm-24.28,44.58c6.18-3.6,15.76-5.4,28.74-5.4v1.41c-10.32,0-17.6,1.45-21.82,4.34-4.22,2.9-6.34,7.86-6.34,14.9v17.6c0,4.85,1.17,8.8,3.52,11.85,2.35,3.05,5.32,4.58,8.92,4.58,2.66,0,5.32-.94,7.98-2.82,2.66-1.88,5.16-4.69,7.51-8.45l.94.47c-2.66,4.38-5.79,7.71-9.39,9.97-3.6,2.27-7.35,3.4-11.26,3.4-5.01,0-9.27-1.8-12.79-5.4-3.52-3.6-5.28-8.21-5.28-13.84v-15.96c0-7.51,3.09-13.06,9.27-16.66Z"/>
          <path class="cls-1" d="m216.95,5.33h9.86v164.01h-9.86V5.33Z"/>
          <path class="cls-1" d="m281.94,169.35h-10.32V5.33h26.52c7.82,0,13.69,1.99,17.6,5.98,3.91,3.99,5.87,10.99,5.87,21v34.26c0,9.23-2.03,16-6.1,20.3-4.07,4.3-9.78,6.45-17.13,6.45h-16.42v76.02Zm0-77.43h14.55c5,0,8.76-1.99,11.26-5.98,2.5-3.99,3.76-9.89,3.76-17.72v-34.26c0-4.22-.16-8.01-.47-11.38-.32-3.36-1.02-6.22-2.11-8.56-1.1-2.35-2.62-4.14-4.58-5.4-1.96-1.25-4.57-1.88-7.86-1.88h-14.55v85.17Z"/>
          <path class="cls-1" d="m367.12,75.26c-2.03-3.6-5.48-5.4-10.32-5.4s-8.29,1.84-10.32,5.51c-2.04,3.68-3.05,9.74-3.05,18.18v17.13h-9.86v-14.31c0-10.01,1.68-17.17,5.05-21.47,3.36-4.3,8.95-6.45,16.78-6.45h2.35c7.98,0,13.65,2.03,17.01,6.1,3.36,4.07,5.04,10.79,5.04,20.18v74.62h-9.62v-75.79c0-8.6-1.02-14.7-3.05-18.3Zm-24.29,44.58c6.18-3.6,15.76-5.4,28.74-5.4v1.41c-10.32,0-17.6,1.45-21.82,4.34-4.22,2.9-6.34,7.86-6.34,14.9v17.6c0,4.85,1.17,8.8,3.52,11.85,2.35,3.05,5.32,4.58,8.92,4.58,2.66,0,5.31-.94,7.98-2.82,2.66-1.88,5.16-4.69,7.51-8.45l.94.47c-2.66,4.38-5.79,7.71-9.39,9.97-3.6,2.27-7.35,3.4-11.26,3.4-5.01,0-9.27-1.8-12.79-5.4-3.52-3.6-5.28-8.21-5.28-13.84v-15.96c0-7.51,3.09-13.06,9.27-16.66Z"/>
          <path class="cls-1" d="m394.34,70.8h9.86v98.55h-9.86v-98.55Zm46.22,98.55h-9.62v-76.26c0-7.66-1.06-13.26-3.17-16.78-2.11-3.52-4.66-5.28-7.63-5.28-2.82,0-5.71,1.29-8.68,3.87-2.97,2.58-5.71,6.22-8.21,10.91l-.94-.7c2.81-5.47,6.1-9.62,9.85-12.44,3.76-2.82,7.43-4.22,11.03-4.22,4.69,0,8.76,2.35,12.2,7.04,3.44,4.69,5.16,11.81,5.16,21.35v72.5Z"/>
          <path class="cls-1" d="m459.45,165.13c-3.68-4.38-5.51-11.18-5.51-20.41v-49.98c0-9.39,1.76-16.11,5.28-20.18,3.52-4.07,9.19-6.1,17.01-6.1h2.11c7.98,0,13.76,2.03,17.36,6.1,3.6,4.07,5.4,10.79,5.4,20.18v49.98c0,9.07-1.92,15.84-5.75,20.3-3.84,4.46-9.43,6.69-16.78,6.69h-2.35c-7.51,0-13.1-2.19-16.78-6.57Zm28.27-.7c2.35-3.91,3.52-9.7,3.52-17.36v-53.5c0-7.66-.94-13.53-2.82-17.6-1.88-4.07-5.63-6.1-11.26-6.1-5.32,0-8.88,1.99-10.68,5.98-1.8,3.99-2.7,9.9-2.7,17.72v53.5c0,7.67,1.13,13.45,3.4,17.36,2.27,3.91,5.67,5.87,10.21,5.87s7.98-1.95,10.32-5.87Z"/>
          <path class="cls-1" d="m525.26,70.8v23.7h.47c.94-3.75,1.95-7.08,3.05-9.97,1.09-2.89,2.54-5.36,4.34-7.39,1.8-2.03,3.95-3.6,6.45-4.69,2.5-1.09,5.47-1.64,8.92-1.64v8.92c-3.91,0-7.31.7-10.21,2.11-2.9,1.41-5.32,3.28-7.27,5.63-1.96,2.35-3.4,5.13-4.34,8.33-.94,3.21-1.41,6.69-1.41,10.44v63.12h-9.86v-98.55h9.86Z"/>
          <path class="cls-1" d="m591.2,75.26c-2.03-3.6-5.48-5.4-10.32-5.4s-8.29,1.84-10.32,5.51c-2.04,3.68-3.05,9.74-3.05,18.18v17.13h-9.86v-14.31c0-10.01,1.68-17.17,5.05-21.47,3.36-4.3,8.95-6.45,16.78-6.45h2.35c7.98,0,13.65,2.03,17.01,6.1,3.36,4.07,5.04,10.79,5.04,20.18v74.62h-9.62v-75.79c0-8.6-1.02-14.7-3.05-18.3Zm-24.29,44.58c6.18-3.6,15.76-5.4,28.74-5.4v1.41c-10.32,0-17.6,1.45-21.82,4.34-4.22,2.9-6.34,7.86-6.34,14.9v17.6c0,4.85,1.17,8.8,3.52,11.85,2.35,3.05,5.32,4.58,8.92,4.58,2.66,0,5.31-.94,7.98-2.82,2.66-1.88,5.16-4.69,7.51-8.45l.94.47c-2.66,4.38-5.79,7.71-9.39,9.97-3.6,2.27-7.35,3.4-11.26,3.4-5.01,0-9.27-1.8-12.79-5.4-3.52-3.6-5.28-8.21-5.28-13.84v-15.96c0-7.51,3.09-13.06,9.27-16.66Z"/>
          <path class="cls-1" d="m628.27,70.8v98.55h-9.86v-98.55h9.86Zm33.09,98.55h-9.86v-76.26c0-7.66-.9-13.26-2.7-16.78-1.8-3.52-4.03-5.28-6.69-5.28-2.35,0-4.85,1.29-7.51,3.87-2.66,2.58-5.08,6.22-7.27,10.91l-.94-.7c2.66-5.47,5.67-9.62,9.03-12.44,3.36-2.82,6.69-4.22,9.97-4.22,4.38,0,8.13,2.35,11.26,7.04,3.13,4.69,4.69,11.81,4.69,21.35v72.5Zm33.08,0h-9.86v-76.26c0-7.66-.9-13.26-2.7-16.78-1.8-3.52-4.03-5.28-6.69-5.28-2.5,0-5.16,1.45-7.98,4.34-2.82,2.9-5.4,6.92-7.74,12.08l-1.17-.47c2.81-6.1,6.02-10.71,9.62-13.84,3.6-3.13,7.12-4.69,10.56-4.69,4.38,0,8.13,2.35,11.26,7.04,3.13,4.69,4.69,11.81,4.69,21.35v72.5Z"/>
          <path class="cls-1" d="m741.13,75.26c-2.03-3.6-5.48-5.4-10.32-5.4s-8.29,1.84-10.32,5.51c-2.03,3.68-3.05,9.74-3.05,18.18v17.13h-9.86v-14.31c0-10.01,1.68-17.17,5.05-21.47,3.36-4.3,8.95-6.45,16.78-6.45h2.35c7.98,0,13.65,2.03,17.01,6.1,3.36,4.07,5.05,10.79,5.05,20.18v74.62h-9.62v-75.79c0-8.6-1.02-14.7-3.05-18.3Zm-24.28,44.58c6.18-3.6,15.76-5.4,28.74-5.4v1.41c-10.32,0-17.6,1.45-21.82,4.34-4.22,2.9-6.34,7.86-6.34,14.9v17.6c0,4.85,1.17,8.8,3.52,11.85,2.35,3.05,5.32,4.58,8.92,4.58,2.66,0,5.32-.94,7.98-2.82,2.66-1.88,5.16-4.69,7.51-8.45l.94.47c-2.66,4.38-5.79,7.71-9.39,9.97-3.6,2.27-7.35,3.4-11.26,3.4-5.01,0-9.27-1.8-12.79-5.4-3.52-3.6-5.28-8.21-5.28-13.84v-15.96c0-7.51,3.09-13.06,9.27-16.66Z"/>
        </g>
        <g>
          <path class="cls-1" d="m166.51,206.24h-7.47v-24.2h7.8c2.35,0,4.36.48,6.03,1.45,1.67.96,2.95,2.35,3.84,4.15.89,1.8,1.34,3.95,1.34,6.46s-.45,4.69-1.35,6.51c-.9,1.82-2.21,3.21-3.92,4.18-1.72.97-3.8,1.46-6.26,1.46Zm-4.54-2.6h4.35c2,0,3.66-.39,4.97-1.16,1.32-.77,2.3-1.87,2.94-3.3.65-1.43.97-3.12.97-5.09s-.32-3.64-.96-5.05c-.64-1.41-1.59-2.5-2.86-3.26-1.27-.76-2.85-1.14-4.74-1.14h-4.68v19Z"/>
          <path class="cls-1" d="m203.38,194.14c0,2.55-.46,4.76-1.38,6.62-.92,1.86-2.19,3.29-3.79,4.3-1.61,1.01-3.44,1.51-5.51,1.51s-3.9-.5-5.51-1.51c-1.61-1.01-2.87-2.44-3.79-4.3-.92-1.86-1.38-4.06-1.38-6.62s.46-4.76,1.38-6.62c.92-1.86,2.19-3.29,3.79-4.3,1.61-1.01,3.44-1.51,5.51-1.51s3.9.5,5.51,1.51c1.61,1.01,2.87,2.44,3.79,4.3.92,1.86,1.38,4.06,1.38,6.62Zm-2.84,0c0-2.1-.35-3.86-1.05-5.31-.7-1.44-1.64-2.53-2.82-3.27s-2.51-1.11-3.98-1.11-2.79.37-3.98,1.11-2.13,1.83-2.82,3.27c-.7,1.44-1.05,3.21-1.05,5.31s.35,3.86,1.05,5.31c.7,1.44,1.64,2.53,2.82,3.27s2.51,1.11,3.98,1.11,2.79-.37,3.98-1.11,2.13-1.83,2.82-3.27c.7-1.44,1.05-3.21,1.05-5.31Z"/>
          <path class="cls-1" d="m209.29,182.04l7.18,20.37h.28l7.18-20.37h3.07l-8.89,24.2h-3.03l-8.89-24.2h3.07Z"/>
          <path class="cls-1" d="m230.79,206.24v-24.2h14.6v2.6h-11.67v8.18h10.92v2.6h-10.92v8.22h11.86v2.6h-14.79Z"/>
          <path class="cls-1" d="m260.05,206.24v-24.2h2.93v21.6h11.25v2.6h-14.18Z"/>
          <path class="cls-1" d="m279.75,206.24h-3.07l8.89-24.2h3.03l8.89,24.2h-3.07l-7.23-20.37h-.19l-7.23,20.37Zm1.13-9.45h12.38v2.6h-12.38v-2.6Z"/>
          <path class="cls-1" d="m311.61,182.04l7.18,20.37h.28l7.18-20.37h3.07l-8.89,24.2h-3.03l-8.89-24.2h3.07Z"/>
          <path class="cls-1" d="m336.05,182.04v24.2h-2.93v-24.2h2.93Z"/>
          <path class="cls-1" d="m355.14,188.09c-.14-1.2-.72-2.13-1.73-2.79-1.01-.66-2.25-.99-3.71-.99-1.07,0-2.01.17-2.81.52s-1.42.82-1.87,1.43c-.45.61-.67,1.3-.67,2.07,0,.65.16,1.2.47,1.66.31.46.71.84,1.2,1.15.49.3,1,.55,1.54.74.54.19,1.03.35,1.48.47l2.46.66c.63.17,1.33.39,2.11.69.78.29,1.52.69,2.23,1.19.71.5,1.3,1.14,1.77,1.92.46.78.7,1.74.7,2.87,0,1.31-.34,2.49-1.02,3.54-.68,1.06-1.67,1.89-2.98,2.52-1.3.62-2.88.93-4.74.93-1.73,0-3.23-.28-4.5-.84-1.26-.56-2.26-1.34-2.98-2.34s-1.13-2.16-1.22-3.49h3.02c.08.91.39,1.67.93,2.26.54.59,1.22,1.04,2.06,1.32.83.29,1.73.43,2.69.43,1.12,0,2.12-.18,3.01-.55.89-.37,1.59-.88,2.11-1.54.52-.66.78-1.43.78-2.31,0-.8-.22-1.46-.67-1.96-.45-.5-1.04-.91-1.77-1.23s-1.52-.59-2.37-.83l-2.98-.85c-1.89-.54-3.39-1.32-4.49-2.33-1.1-1.01-1.65-2.33-1.65-3.96,0-1.35.37-2.54,1.1-3.55s1.73-1.8,2.98-2.36c1.25-.56,2.64-.84,4.19-.84s2.95.28,4.16.83c1.21.56,2.18,1.31,2.89,2.27.71.96,1.09,2.05,1.13,3.27h-2.84Z"/>
          <path class="cls-1" d="m361.8,184.64v-2.6h18.15v2.6h-7.61v21.6h-2.93v-21.6h-7.61Z"/>
          <path class="cls-1" d="m385.48,206.24h-3.07l8.89-24.2h3.03l8.89,24.2h-3.07l-7.23-20.37h-.19l-7.23,20.37Zm1.13-9.45h12.38v2.6h-12.38v-2.6Z"/>
          <path class="cls-1" d="m416.34,206.24v-24.2h2.93v21.6h11.25v2.6h-14.18Z"/>
          <path class="cls-1" d="m436.05,206.24h-3.07l8.89-24.2h3.03l8.89,24.2h-3.07l-7.23-20.37h-.19l-7.23,20.37Zm1.13-9.45h12.38v2.6h-12.38v-2.6Z"/>
          <path class="cls-1" d="m470.79,188.09c-.14-1.2-.72-2.13-1.73-2.79-1.01-.66-2.25-.99-3.71-.99-1.07,0-2.01.17-2.81.52s-1.42.82-1.87,1.43c-.45.61-.67,1.3-.67,2.07,0,.65.16,1.2.47,1.66.31.46.71.84,1.2,1.15.49.3,1,.55,1.54.74.54.19,1.03.35,1.48.47l2.46.66c.63.17,1.33.39,2.11.69.78.29,1.52.69,2.23,1.19.71.5,1.3,1.14,1.77,1.92.46.78.7,1.74.7,2.87,0,1.31-.34,2.49-1.02,3.54-.68,1.06-1.67,1.89-2.98,2.52-1.3.62-2.88.93-4.74.93-1.73,0-3.23-.28-4.5-.84-1.26-.56-2.26-1.34-2.98-2.34s-1.13-2.16-1.22-3.49h3.02c.08.91.39,1.67.93,2.26.54.59,1.22,1.04,2.06,1.32.83.29,1.73.43,2.69.43,1.12,0,2.12-.18,3.01-.55.89-.37,1.59-.88,2.11-1.54.52-.66.78-1.43.78-2.31,0-.8-.22-1.46-.67-1.96-.45-.5-1.04-.91-1.77-1.23s-1.52-.59-2.37-.83l-2.98-.85c-1.89-.54-3.39-1.32-4.49-2.33s-1.65-2.33-1.65-3.96c0-1.35.37-2.54,1.1-3.55.74-1.01,1.73-1.8,2.98-2.36,1.25-.56,2.64-.84,4.19-.84s2.95.28,4.16.83c1.21.56,2.18,1.31,2.89,2.27.71.96,1.09,2.05,1.13,3.27h-2.84Z"/>
          <path class="cls-1" d="m498.25,189.6h-2.93c-.17-.84-.47-1.58-.9-2.22s-.95-1.18-1.56-1.61c-.61-.44-1.29-.77-2.03-.99-.74-.22-1.51-.33-2.32-.33-1.47,0-2.79.37-3.98,1.11s-2.13,1.83-2.82,3.27c-.7,1.44-1.05,3.21-1.05,5.31s.35,3.86,1.05,5.31c.7,1.44,1.64,2.53,2.82,3.27s2.51,1.11,3.98,1.11c.8,0,1.58-.11,2.32-.33.74-.22,1.42-.55,2.03-.99s1.13-.98,1.56-1.62.73-1.38.9-2.22h2.93c-.22,1.24-.62,2.34-1.2,3.32-.58.98-1.31,1.81-2.17,2.49-.87.68-1.84,1.2-2.91,1.55s-2.22.53-3.44.53c-2.06,0-3.9-.5-5.51-1.51-1.61-1.01-2.87-2.44-3.79-4.3-.92-1.86-1.38-4.06-1.38-6.62s.46-4.76,1.38-6.62c.92-1.86,2.19-3.29,3.79-4.3,1.61-1.01,3.44-1.51,5.51-1.51,1.22,0,2.37.18,3.44.53s2.05.87,2.91,1.55c.87.68,1.59,1.51,2.17,2.48.58.97.98,2.08,1.2,3.33Z"/>
          <path class="cls-1" d="m505.91,182.04v24.2h-2.93v-24.2h2.93Z"/>
          <path class="cls-1" d="m512.76,206.24h-3.07l8.89-24.2h3.03l8.89,24.2h-3.07l-7.23-20.37h-.19l-7.23,20.37Zm1.13-9.45h12.38v2.6h-12.38v-2.6Z"/>
          <path class="cls-1" d="m556.86,188.09c-.14-1.2-.72-2.13-1.73-2.79-1.01-.66-2.25-.99-3.71-.99-1.07,0-2.01.17-2.81.52s-1.42.82-1.87,1.43c-.45.61-.67,1.3-.67,2.07,0,.65.16,1.2.47,1.66.31.46.71.84,1.2,1.15.49.3,1,.55,1.54.74.54.19,1.03.35,1.48.47l2.46.66c.63.17,1.33.39,2.11.69.78.29,1.52.69,2.23,1.19.71.5,1.3,1.14,1.77,1.92.46.78.7,1.74.7,2.87,0,1.31-.34,2.49-1.02,3.54-.68,1.06-1.67,1.89-2.98,2.52-1.3.62-2.88.93-4.74.93-1.73,0-3.23-.28-4.5-.84-1.26-.56-2.26-1.34-2.98-2.34s-1.13-2.16-1.22-3.49h3.02c.08.91.39,1.67.93,2.26.54.59,1.22,1.04,2.06,1.32.83.29,1.73.43,2.69.43,1.12,0,2.12-.18,3.01-.55.89-.37,1.59-.88,2.11-1.54.52-.66.78-1.43.78-2.31,0-.8-.22-1.46-.67-1.96-.45-.5-1.04-.91-1.77-1.23s-1.52-.59-2.37-.83l-2.98-.85c-1.89-.54-3.39-1.32-4.49-2.33-1.1-1.01-1.65-2.33-1.65-3.96,0-1.35.37-2.54,1.1-3.55s1.73-1.8,2.98-2.36c1.25-.56,2.64-.84,4.19-.84s2.95.28,4.16.83c1.21.56,2.18,1.31,2.89,2.27.71.96,1.09,2.05,1.13,3.27h-2.84Z"/>
          <path class="cls-1" d="m564.84,206.24v-24.2h14.6v2.6h-11.67v8.18h10.92v2.6h-10.92v8.22h11.86v2.6h-14.79Z"/>
          <path class="cls-1" d="m603.93,182.04v24.2h-2.84l-13.19-19h-.24v19h-2.93v-24.2h2.84l13.23,19.05h.24v-19.05h2.88Z"/>
          <path class="cls-1" d="m608.99,206.24v-2.13l13.04-19.47h-13.19v-2.6h16.68v2.13l-13.04,19.47h13.19v2.6h-16.68Z"/>
          <path class="cls-1" d="m631.58,206.24h-3.07l8.89-24.2h3.03l8.89,24.2h-3.07l-7.23-20.37h-.19l-7.23,20.37Zm1.13-9.45h12.38v2.6h-12.38v-2.6Z"/>
          <path class="cls-1" d="m662.44,206.24v-24.2h14.51v2.6h-11.58v8.18h10.49v2.6h-10.49v10.82h-2.93Z"/>
          <path class="cls-1" d="m684.89,182.04v24.2h-2.93v-24.2h2.93Z"/>
          <path class="cls-1" d="m691.75,206.24h-3.07l8.89-24.2h3.03l8.89,24.2h-3.07l-7.23-20.37h-.19l-7.23,20.37Zm1.13-9.45h12.38v2.6h-12.38v-2.6Z"/>
          <path class="cls-1" d="m711.93,184.64v-2.6h18.15v2.6h-7.61v21.6h-2.93v-21.6h-7.61Z"/>
          <path class="cls-1" d="m755.03,194.14c0,2.55-.46,4.76-1.38,6.62-.92,1.86-2.19,3.29-3.79,4.3-1.61,1.01-3.44,1.51-5.51,1.51s-3.9-.5-5.51-1.51c-1.61-1.01-2.87-2.44-3.79-4.3-.92-1.86-1.38-4.06-1.38-6.62s.46-4.76,1.38-6.62c.92-1.86,2.19-3.29,3.79-4.3,1.61-1.01,3.44-1.51,5.51-1.51s3.9.5,5.51,1.51c1.61,1.01,2.87,2.44,3.79,4.3.92,1.86,1.38,4.06,1.38,6.62Zm-2.84,0c0-2.1-.35-3.86-1.05-5.31-.7-1.44-1.64-2.53-2.82-3.27s-2.51-1.11-3.98-1.11-2.79.37-3.98,1.11-2.13,1.83-2.82,3.27c-.7,1.44-1.05,3.21-1.05,5.31s.35,3.86,1.05,5.31c.7,1.44,1.64,2.53,2.82,3.27s2.51,1.11,3.98,1.11,2.79-.37,3.98-1.11,2.13-1.83,2.82-3.27c.7-1.44,1.05-3.21,1.05-5.31Z"/>
        </g>
      </g>
      <g>
        <path class="cls-1" d="m121.62,43.98c.05.13.09.25.14.38.06-.07.11-.14.16-.21l-.3-.16Z"/>
        <path class="cls-1" d="m127.46,45.18h0c-.65-2.01-1.4-3.98-2.24-5.9-4.97-11.39-13.09-21.09-23.25-28-1.91-1.3-3.9-2.51-5.95-3.6-9.16-4.9-19.61-7.68-30.7-7.68-9.89,0-19.27,2.21-27.68,6.16-2.11.99-4.15,2.08-6.12,3.28-1.99,1.21-3.91,2.52-5.75,3.92-2.08,1.59-4.06,3.3-5.93,5.11-5.18,5.03-9.54,10.92-12.83,17.42-1.01,1.98-1.91,4.02-2.72,6.11-2.78,7.24-4.3,15.1-4.3,23.31v81.36c0,1.25.04,2.49.11,3.72,0,.22.02.43.04.65.1,1.53.25,3.05.46,4.54.09.72.2,1.43.33,2.13h0c.79,4.63,2.06,9.08,3.78,13.32,1.97,4.9,4.52,9.49,7.56,13.72,3.21,4.45,6.96,8.49,11.16,12,1.37,1.15,2.79,2.25,4.25,3.28,10.64,7.53,23.63,11.95,37.63,11.95,14.7,0,28.27-4.88,39.2-13.1,1.38-1.04,2.72-2.13,4-3.27,3.35-2.96,6.4-6.26,9.08-9.84,1.99-2.65,3.78-5.46,5.36-8.4,2.82-5.28,4.94-10.99,6.23-17,.31-1.43.57-2.88.78-4.35.1-.68.19-1.37.27-2.05.07-.58.13-1.17.17-1.75.08-.93.14-1.87.18-2.81,0-.21.02-.42.02-.64.03-.7.04-1.4.04-2.11v-81.36c0-7.03-1.12-13.79-3.18-20.14Zm-25.24-27.4c8.66,6.74,15.44,15.78,19.4,26.2l-22.84-12.69c1.98-4.13,3.19-8.69,3.44-13.51Zm19.7,26.37c-.05.07-.1.14-.16.21-.05-.13-.09-.25-.14-.38l.3.16Zm-35.13,1.17c3.73-2.57,6.94-5.82,9.46-9.58l22.52,12.51c-1.16,1.43-2.42,2.87-3.77,4.32-5.05,5.4-10.45,9.82-16.19,13.25l-12.01-20.5Zm7.52,22.95c-7.83,3.86-16.23,5.97-25.16,6.31v-23.07c4.72-.33,9.19-1.59,13.22-3.6l11.93,20.36ZM36.22,12.62c8.63-4.78,18.55-7.51,29.1-7.51,11.66,0,22.55,3.33,31.78,9.09.04.57.05,1.14.05,1.72,0,16.85-13.71,30.55-30.55,30.55s-30.55-13.71-30.55-30.55c0-1.12.06-2.22.18-3.3Zm15.07,35.51c3.91,1.86,8.21,3.04,12.75,3.36v22.88c-9.4-.99-17.36-3.23-24.11-6.19l11.36-20.05Zm-15.97,17.81c-9.02-4.8-15.52-10.89-20.12-16.65l22.07-13.1c2.57,3.71,5.82,6.91,9.58,9.41l-11.53,20.34Zm-7.79-47.47h3.49c.33,4.75,1.61,9.25,3.64,13.31l-22.5,13.36c-.81-1.21-1.55-2.39-2.2-3.51,3.9-9.09,9.98-17.03,17.57-23.17ZM5.11,146.02v-15.1l19.82-12.75,8.35,8.35,7.31-7.31,21.33,21.33c-19.21.5-38.24,3.32-56.74,8.41-.05-.97-.07-1.95-.07-2.93Zm59.86,60.87c-12.43-.07-23.93-3.96-33.47-10.53.31-.35.61-.7.91-1.05,2.95-3.4,5.29-6.09,10.17-6.09s7.22,2.69,10.17,6.09c3.19,3.68,6.82,7.86,14.03,7.86s10.84-4.17,14.03-7.86c2.96-3.4,5.29-6.09,10.17-6.09s7.14,2.6,10.03,5.92c-10.08,7.44-22.55,11.82-36.03,11.74Zm40.02-14.95c-3.19-3.68-6.81-7.83-14.01-7.83s-10.83,4.17-14.03,7.86c-2.95,3.4-5.29,6.09-10.17,6.09s-7.22-2.69-10.17-6.09c-3.19-3.68-6.82-7.86-14.03-7.86s-10.84,4.17-14.03,7.86c-.39.45-.77.89-1.14,1.31-2.72-2.23-5.23-4.7-7.52-7.37,6.23-.53,9.56-4.37,12.52-7.79,2.95-3.4,5.29-6.09,10.17-6.09s7.22,2.69,10.17,6.09c3.19,3.68,6.82,7.86,14.03,7.86s10.84-4.17,14.03-7.86c2.96-3.4,5.29-6.09,10.17-6.09,1.02,0,1.93.12,2.76.33,2.87.75,4.75,2.71,6.84,5.1.19.21.38.43.57.65,2.56,2.96,5.4,6.23,10.15,7.4-1.94,2.3-4.05,4.44-6.31,6.43Zm9.88-11.09c-4.68-.11-6.97-2.76-9.87-6.09-2.25-2.6-4.72-5.45-8.53-6.89-1.58-.6-3.38-.96-5.5-.96-.89,0-1.72.07-2.51.18-5.59.84-8.72,4.45-11.52,7.68-2.95,3.4-5.29,6.09-10.17,6.09s-7.22-2.69-10.17-6.09c-3.19-3.68-6.82-7.86-14.03-7.86s-10.84,4.17-14.03,7.86c-2.95,3.4-5.28,6.09-10.17,6.09-.96,0-1.82-.1-2.6-.29-3.18-4.65-5.74-9.76-7.55-15.21,2.41,1.96,5.42,3.42,9.68,3.42,7.22,0,10.84-4.17,14.03-7.86,2.95-3.4,5.29-6.09,10.17-6.09s7.22,2.69,10.17,6.09c3.19,3.68,6.82,7.86,14.03,7.86s10.84-4.17,14.03-7.86c.31-.35.61-.7.91-1.04,1.22-1.38,2.39-2.59,3.75-3.49,1.49-.98,3.22-1.57,5.51-1.57,4.89,0,7.22,2.69,10.17,6.09,3.19,3.68,6.81,7.86,14.03,7.86,2.97,0,5.33-.7,7.29-1.79-1.78,4.96-4.19,9.62-7.14,13.88Zm9.58-22.79c-2.75,3.17-5.09,5.6-9.74,5.6-4.89,0-7.22-2.69-10.17-6.09-3.19-3.68-6.81-7.86-14.03-7.86-3.97,0-6.85,1.26-9.17,3.02-1.4,1.05-2.6,2.29-3.71,3.52-.39.44-.77.88-1.15,1.31-2.95,3.4-5.29,6.09-10.17,6.09s-7.22-2.69-10.17-6.09c-3.19-3.68-6.82-7.86-14.03-7.86s-10.84,4.17-14.03,7.86c-2.95,3.4-5.28,6.09-10.17,6.09s-7.21-2.69-10.16-6.09c-.62-.71-1.25-1.44-1.92-2.15-.07-.42-.13-.85-.18-1.28,19.48-5.43,39.56-8.3,59.83-8.54.49,0,.99,0,1.48,0,2.44-.02,4.87,0,7.3.07,17.21.44,34.27,2.79,50.96,7.01-.18,1.82-.44,3.62-.78,5.39Zm-55.38-17.59l-28.48-28.48-7.31,7.31-7.66-7.65-20.52,13.2v-8.26l43.06-27.7,8.35,8.35,7.31-7.31,56.27,56.27c-16.75-3.75-33.85-5.68-51.04-5.74Zm-5.23-57.77l-7.31,7.31-7.66-7.65L5.11,110.5v-45.18c0-6.11.92-12.02,2.62-17.58,1.64,2.46,3.59,5.04,5.89,7.61,8.86,9.92,25.14,22.17,52.51,24.35.18.01.37.02.55.02l2.48-.03c18.69-.68,35.83-8.87,49.69-23.77,1.75-1.88,3.34-3.75,4.79-5.58,1.23,4.79,1.89,9.81,1.89,14.98v79.05l-61.68-61.68Z"/>
      </g>
    </g>
  </g>
</svg>